M48
INCH,TZ
T1C0.016
T2C0.040
%
G90
G05
T1
X38550Y-50550
X40000Y-42450
X41000Y-44700
X41300Y-42600
X41300Y-48450
X41350Y-32500
X41700Y-48250
X42550Y-32650
X43850Y-46300
X46650Y-46650
X46700Y-22650
X46700Y-23300
X46700Y-23850
X46700Y-24650
X46700Y-25250
X46700Y-25850
X47300Y-42600
X48550Y-45350
X48800Y-40500
X48900Y-45650
X49200Y-46000
X49500Y-46400
X49850Y-46800
X50200Y-46550
X50550Y-46900
X50750Y-27400
X50900Y-46600
X51350Y-48100
X51700Y-47350
X52600Y-42950
X52700Y-28550
X53000Y-40700
X53450Y-45000
X53850Y-42950
X54550Y-40700
X55300Y-44450
X55300Y-47750
X55700Y-45550
X55950Y-43150
X56575Y-42075
X56750Y-21200
X56750Y-22550
X56750Y-40500
X56950Y-44700
X57200Y-47850
X57550Y-48950
X57750Y-44650
X57950Y-45150
X58050Y-45600
X58500Y-45650
X58750Y-35200
X59100Y-45650
X59600Y-52350
X60475Y-42075
X60500Y-44500
X60750Y-40350
X60950Y-33450
X60950Y-33950
X61350Y-21950
X61550Y-50600
X61700Y-21550
X62100Y-40650
X62150Y-42850
X62550Y-50150
X63150Y-44700
X63450Y-33450
X63450Y-34000
X63550Y-50250
X64325Y-42075
X64450Y-40400
X64550Y-50800
X64650Y-40850
X64850Y-40200
X65300Y-40200
X66000Y-41000
X66150Y-40200
X66450Y-47750
X66550Y-40350
X66850Y-40650
X67400Y-48350
X67900Y-48900
X68150Y-41800
X68550Y-49350
X69500Y-49600
X70300Y-40550
X70550Y-40900
X70550Y-50000
X70650Y-42300
X70650Y-43500
X71200Y-36000
X71650Y-35700
X72300Y-33850
X72300Y-47650
X72450Y-35550
X72550Y-51350
X72600Y-48150
X72850Y-48550
X73050Y-48950
X73550Y-51700
X73700Y-37600
X74000Y-40800
X74250Y-40400
X74450Y-40050
X74900Y-39500
X75350Y-39550
X75700Y-39750
X75950Y-43100
X77750Y-47650
X77850Y-52400
X78750Y-42750
X79450Y-44650
X81500Y-42900
T2
X36950Y-42450
X36950Y-43450
X46200Y-18750
X46200Y-19750
X47200Y-18750
X47200Y-19750
X48200Y-18750
X48200Y-19750
X49200Y-18750
X49200Y-19750
X50200Y-18750
X50200Y-19750
X51200Y-18750
X51200Y-19750
X51300Y-37250
X52200Y-18750
X52200Y-19750
X52300Y-37250
X53200Y-18750
X53200Y-19750
X53300Y-37250
X54250Y-18750
X54250Y-19750
X54275Y-36250
X54275Y-37225
X55250Y-18750
X55250Y-19750
X55275Y-36250
X55275Y-37225
X56250Y-18750
X56250Y-19750
X56275Y-36250
X56275Y-37225
X57250Y-18750
X57250Y-19750
X57275Y-36250
X57275Y-37225
X58250Y-18750
X58250Y-19750
X58275Y-36250
X58275Y-37225
X59250Y-18750
X59250Y-19750
X59275Y-36250
X59275Y-37225
X60250Y-18750
X60250Y-19750
X60275Y-36250
X60275Y-37225
X61250Y-18750
X61250Y-19750
X61275Y-36250
X61275Y-37225
X62275Y-36250
X62275Y-37225
X63275Y-36250
X63275Y-37225
X64275Y-36250
X64275Y-37225
X65275Y-36250
X65275Y-37225
X66275Y-36250
X66275Y-37225
X67275Y-36250
X67275Y-37225
X68275Y-36250
X68275Y-37225
X69275Y-36250
X69275Y-37225
T0
M30
