G04 #@! TF.FileFunction,Legend,Top*
%FSLAX46Y46*%
G04 Gerber Fmt 4.6, Leading zero omitted, Abs format (unit mm)*
G04 Created by KiCad (PCBNEW (2015-10-16 BZR 6271)-product) date Sun 21 Feb 2016 04:12:30 PM CET*
%MOMM*%
G01*
G04 APERTURE LIST*
%ADD10C,0.100000*%
%ADD11C,0.300000*%
%ADD12C,0.150000*%
%ADD13C,0.010000*%
%ADD14C,0.381000*%
%ADD15C,0.299720*%
%ADD16C,0.074930*%
%ADD17C,0.076200*%
G04 APERTURE END LIST*
D10*
D11*
X211407429Y-131909429D02*
X211478858Y-131838000D01*
X211621715Y-131766571D01*
X211978858Y-131766571D01*
X212121715Y-131838000D01*
X212193144Y-131909429D01*
X212264572Y-132052286D01*
X212264572Y-132195143D01*
X212193144Y-132409429D01*
X211336001Y-133266571D01*
X212264572Y-133266571D01*
X88662001Y-133266571D02*
X87804858Y-133266571D01*
X88233430Y-133266571D02*
X88233430Y-131766571D01*
X88090573Y-131980857D01*
X87947715Y-132123714D01*
X87804858Y-132195143D01*
X89590572Y-131766571D02*
X89733429Y-131766571D01*
X89876286Y-131838000D01*
X89947715Y-131909429D01*
X90019144Y-132052286D01*
X90090572Y-132338000D01*
X90090572Y-132695143D01*
X90019144Y-132980857D01*
X89947715Y-133123714D01*
X89876286Y-133195143D01*
X89733429Y-133266571D01*
X89590572Y-133266571D01*
X89447715Y-133195143D01*
X89376286Y-133123714D01*
X89304858Y-132980857D01*
X89233429Y-132695143D01*
X89233429Y-132338000D01*
X89304858Y-132052286D01*
X89376286Y-131909429D01*
X89447715Y-131838000D01*
X89590572Y-131766571D01*
X91019143Y-131766571D02*
X91162000Y-131766571D01*
X91304857Y-131838000D01*
X91376286Y-131909429D01*
X91447715Y-132052286D01*
X91519143Y-132338000D01*
X91519143Y-132695143D01*
X91447715Y-132980857D01*
X91376286Y-133123714D01*
X91304857Y-133195143D01*
X91162000Y-133266571D01*
X91019143Y-133266571D01*
X90876286Y-133195143D01*
X90804857Y-133123714D01*
X90733429Y-132980857D01*
X90662000Y-132695143D01*
X90662000Y-132338000D01*
X90733429Y-132052286D01*
X90804857Y-131909429D01*
X90876286Y-131838000D01*
X91019143Y-131766571D01*
X194946860Y-56186429D02*
X195018289Y-56115000D01*
X195161146Y-56043571D01*
X195518289Y-56043571D01*
X195661146Y-56115000D01*
X195732575Y-56186429D01*
X195804003Y-56329286D01*
X195804003Y-56472143D01*
X195732575Y-56686429D01*
X194875432Y-57543571D01*
X195804003Y-57543571D01*
X196732574Y-56043571D02*
X196875431Y-56043571D01*
X197018288Y-56115000D01*
X197089717Y-56186429D01*
X197161146Y-56329286D01*
X197232574Y-56615000D01*
X197232574Y-56972143D01*
X197161146Y-57257857D01*
X197089717Y-57400714D01*
X197018288Y-57472143D01*
X196875431Y-57543571D01*
X196732574Y-57543571D01*
X196589717Y-57472143D01*
X196518288Y-57400714D01*
X196446860Y-57257857D01*
X196375431Y-56972143D01*
X196375431Y-56615000D01*
X196446860Y-56329286D01*
X196518288Y-56186429D01*
X196589717Y-56115000D01*
X196732574Y-56043571D01*
X198661145Y-57543571D02*
X197804002Y-57543571D01*
X198232574Y-57543571D02*
X198232574Y-56043571D01*
X198089717Y-56257857D01*
X197946859Y-56400714D01*
X197804002Y-56472143D01*
X199946859Y-56043571D02*
X199661145Y-56043571D01*
X199518288Y-56115000D01*
X199446859Y-56186429D01*
X199304002Y-56400714D01*
X199232573Y-56686429D01*
X199232573Y-57257857D01*
X199304002Y-57400714D01*
X199375430Y-57472143D01*
X199518288Y-57543571D01*
X199804002Y-57543571D01*
X199946859Y-57472143D01*
X200018288Y-57400714D01*
X200089716Y-57257857D01*
X200089716Y-56900714D01*
X200018288Y-56757857D01*
X199946859Y-56686429D01*
X199804002Y-56615000D01*
X199518288Y-56615000D01*
X199375430Y-56686429D01*
X199304002Y-56757857D01*
X199232573Y-56900714D01*
X200732573Y-56972143D02*
X201875430Y-56972143D01*
X202875430Y-56043571D02*
X203018287Y-56043571D01*
X203161144Y-56115000D01*
X203232573Y-56186429D01*
X203304002Y-56329286D01*
X203375430Y-56615000D01*
X203375430Y-56972143D01*
X203304002Y-57257857D01*
X203232573Y-57400714D01*
X203161144Y-57472143D01*
X203018287Y-57543571D01*
X202875430Y-57543571D01*
X202732573Y-57472143D01*
X202661144Y-57400714D01*
X202589716Y-57257857D01*
X202518287Y-56972143D01*
X202518287Y-56615000D01*
X202589716Y-56329286D01*
X202661144Y-56186429D01*
X202732573Y-56115000D01*
X202875430Y-56043571D01*
X203946858Y-56186429D02*
X204018287Y-56115000D01*
X204161144Y-56043571D01*
X204518287Y-56043571D01*
X204661144Y-56115000D01*
X204732573Y-56186429D01*
X204804001Y-56329286D01*
X204804001Y-56472143D01*
X204732573Y-56686429D01*
X203875430Y-57543571D01*
X204804001Y-57543571D01*
X205446858Y-56972143D02*
X206589715Y-56972143D01*
X207232572Y-56186429D02*
X207304001Y-56115000D01*
X207446858Y-56043571D01*
X207804001Y-56043571D01*
X207946858Y-56115000D01*
X208018287Y-56186429D01*
X208089715Y-56329286D01*
X208089715Y-56472143D01*
X208018287Y-56686429D01*
X207161144Y-57543571D01*
X208089715Y-57543571D01*
X209518286Y-57543571D02*
X208661143Y-57543571D01*
X209089715Y-57543571D02*
X209089715Y-56043571D01*
X208946858Y-56257857D01*
X208804000Y-56400714D01*
X208661143Y-56472143D01*
X196518287Y-59515000D02*
X197232573Y-59515000D01*
X196375430Y-59943571D02*
X196875430Y-58443571D01*
X197375430Y-59943571D01*
X197875430Y-59943571D02*
X197875430Y-58943571D01*
X197875430Y-59086429D02*
X197946858Y-59015000D01*
X198089716Y-58943571D01*
X198304001Y-58943571D01*
X198446858Y-59015000D01*
X198518287Y-59157857D01*
X198518287Y-59943571D01*
X198518287Y-59157857D02*
X198589716Y-59015000D01*
X198732573Y-58943571D01*
X198946858Y-58943571D01*
X199089716Y-59015000D01*
X199161144Y-59157857D01*
X199161144Y-59943571D01*
X199875430Y-59943571D02*
X199875430Y-58943571D01*
X199875430Y-58443571D02*
X199804001Y-58515000D01*
X199875430Y-58586429D01*
X199946858Y-58515000D01*
X199875430Y-58443571D01*
X199875430Y-58586429D01*
X201232573Y-58943571D02*
X201232573Y-60157857D01*
X201161144Y-60300714D01*
X201089716Y-60372143D01*
X200946859Y-60443571D01*
X200732573Y-60443571D01*
X200589716Y-60372143D01*
X201232573Y-59872143D02*
X201089716Y-59943571D01*
X200804002Y-59943571D01*
X200661144Y-59872143D01*
X200589716Y-59800714D01*
X200518287Y-59657857D01*
X200518287Y-59229286D01*
X200589716Y-59086429D01*
X200661144Y-59015000D01*
X200804002Y-58943571D01*
X201089716Y-58943571D01*
X201232573Y-59015000D01*
X202589716Y-59943571D02*
X202589716Y-59157857D01*
X202518287Y-59015000D01*
X202375430Y-58943571D01*
X202089716Y-58943571D01*
X201946859Y-59015000D01*
X202589716Y-59872143D02*
X202446859Y-59943571D01*
X202089716Y-59943571D01*
X201946859Y-59872143D01*
X201875430Y-59729286D01*
X201875430Y-59586429D01*
X201946859Y-59443571D01*
X202089716Y-59372143D01*
X202446859Y-59372143D01*
X202589716Y-59300714D01*
X204375430Y-58586429D02*
X204446859Y-58515000D01*
X204589716Y-58443571D01*
X204946859Y-58443571D01*
X205089716Y-58515000D01*
X205161145Y-58586429D01*
X205232573Y-58729286D01*
X205232573Y-58872143D01*
X205161145Y-59086429D01*
X204304002Y-59943571D01*
X205232573Y-59943571D01*
X206161144Y-58443571D02*
X206304001Y-58443571D01*
X206446858Y-58515000D01*
X206518287Y-58586429D01*
X206589716Y-58729286D01*
X206661144Y-59015000D01*
X206661144Y-59372143D01*
X206589716Y-59657857D01*
X206518287Y-59800714D01*
X206446858Y-59872143D01*
X206304001Y-59943571D01*
X206161144Y-59943571D01*
X206018287Y-59872143D01*
X205946858Y-59800714D01*
X205875430Y-59657857D01*
X205804001Y-59372143D01*
X205804001Y-59015000D01*
X205875430Y-58729286D01*
X205946858Y-58586429D01*
X206018287Y-58515000D01*
X206161144Y-58443571D01*
X207589715Y-58443571D02*
X207732572Y-58443571D01*
X207875429Y-58515000D01*
X207946858Y-58586429D01*
X208018287Y-58729286D01*
X208089715Y-59015000D01*
X208089715Y-59372143D01*
X208018287Y-59657857D01*
X207946858Y-59800714D01*
X207875429Y-59872143D01*
X207732572Y-59943571D01*
X207589715Y-59943571D01*
X207446858Y-59872143D01*
X207375429Y-59800714D01*
X207304001Y-59657857D01*
X207232572Y-59372143D01*
X207232572Y-59015000D01*
X207304001Y-58729286D01*
X207375429Y-58586429D01*
X207446858Y-58515000D01*
X207589715Y-58443571D01*
X209018286Y-58443571D02*
X209161143Y-58443571D01*
X209304000Y-58515000D01*
X209375429Y-58586429D01*
X209446858Y-58729286D01*
X209518286Y-59015000D01*
X209518286Y-59372143D01*
X209446858Y-59657857D01*
X209375429Y-59800714D01*
X209304000Y-59872143D01*
X209161143Y-59943571D01*
X209018286Y-59943571D01*
X208875429Y-59872143D01*
X208804000Y-59800714D01*
X208732572Y-59657857D01*
X208661143Y-59372143D01*
X208661143Y-59015000D01*
X208732572Y-58729286D01*
X208804000Y-58586429D01*
X208875429Y-58515000D01*
X209018286Y-58443571D01*
X196304002Y-61557857D02*
X195804002Y-61557857D01*
X195804002Y-62343571D02*
X195804002Y-60843571D01*
X196518288Y-60843571D01*
X197089716Y-62343571D02*
X197089716Y-60843571D01*
X197661144Y-60843571D01*
X197804002Y-60915000D01*
X197875430Y-60986429D01*
X197946859Y-61129286D01*
X197946859Y-61343571D01*
X197875430Y-61486429D01*
X197804002Y-61557857D01*
X197661144Y-61629286D01*
X197089716Y-61629286D01*
X199375430Y-60915000D02*
X199232573Y-60843571D01*
X199018287Y-60843571D01*
X198804002Y-60915000D01*
X198661144Y-61057857D01*
X198589716Y-61200714D01*
X198518287Y-61486429D01*
X198518287Y-61700714D01*
X198589716Y-61986429D01*
X198661144Y-62129286D01*
X198804002Y-62272143D01*
X199018287Y-62343571D01*
X199161144Y-62343571D01*
X199375430Y-62272143D01*
X199446859Y-62200714D01*
X199446859Y-61700714D01*
X199161144Y-61700714D01*
X200018287Y-61915000D02*
X200732573Y-61915000D01*
X199875430Y-62343571D02*
X200375430Y-60843571D01*
X200875430Y-62343571D01*
X203375430Y-62200714D02*
X203304001Y-62272143D01*
X203089715Y-62343571D01*
X202946858Y-62343571D01*
X202732573Y-62272143D01*
X202589715Y-62129286D01*
X202518287Y-61986429D01*
X202446858Y-61700714D01*
X202446858Y-61486429D01*
X202518287Y-61200714D01*
X202589715Y-61057857D01*
X202732573Y-60915000D01*
X202946858Y-60843571D01*
X203089715Y-60843571D01*
X203304001Y-60915000D01*
X203375430Y-60986429D01*
X204661144Y-62343571D02*
X204661144Y-61557857D01*
X204589715Y-61415000D01*
X204446858Y-61343571D01*
X204161144Y-61343571D01*
X204018287Y-61415000D01*
X204661144Y-62272143D02*
X204518287Y-62343571D01*
X204161144Y-62343571D01*
X204018287Y-62272143D01*
X203946858Y-62129286D01*
X203946858Y-61986429D01*
X204018287Y-61843571D01*
X204161144Y-61772143D01*
X204518287Y-61772143D01*
X204661144Y-61700714D01*
X205375430Y-62343571D02*
X205375430Y-61343571D01*
X205375430Y-61629286D02*
X205446858Y-61486429D01*
X205518287Y-61415000D01*
X205661144Y-61343571D01*
X205804001Y-61343571D01*
X206304001Y-62343571D02*
X206304001Y-61343571D01*
X206304001Y-61629286D02*
X206375429Y-61486429D01*
X206446858Y-61415000D01*
X206589715Y-61343571D01*
X206732572Y-61343571D01*
X207232572Y-62343571D02*
X207232572Y-61343571D01*
X207232572Y-60843571D02*
X207161143Y-60915000D01*
X207232572Y-60986429D01*
X207304000Y-60915000D01*
X207232572Y-60843571D01*
X207232572Y-60986429D01*
X208518286Y-62272143D02*
X208375429Y-62343571D01*
X208089715Y-62343571D01*
X207946858Y-62272143D01*
X207875429Y-62129286D01*
X207875429Y-61557857D01*
X207946858Y-61415000D01*
X208089715Y-61343571D01*
X208375429Y-61343571D01*
X208518286Y-61415000D01*
X208589715Y-61557857D01*
X208589715Y-61700714D01*
X207875429Y-61843571D01*
X209232572Y-62343571D02*
X209232572Y-61343571D01*
X209232572Y-61629286D02*
X209304000Y-61486429D01*
X209375429Y-61415000D01*
X209518286Y-61343571D01*
X209661143Y-61343571D01*
X205304001Y-63743571D02*
X205661144Y-64743571D01*
X206018286Y-63743571D01*
X207375429Y-64743571D02*
X206518286Y-64743571D01*
X206946858Y-64743571D02*
X206946858Y-63243571D01*
X206804001Y-63457857D01*
X206661143Y-63600714D01*
X206518286Y-63672143D01*
X208018286Y-64600714D02*
X208089714Y-64672143D01*
X208018286Y-64743571D01*
X207946857Y-64672143D01*
X208018286Y-64600714D01*
X208018286Y-64743571D01*
X208661143Y-63386429D02*
X208732572Y-63315000D01*
X208875429Y-63243571D01*
X209232572Y-63243571D01*
X209375429Y-63315000D01*
X209446858Y-63386429D01*
X209518286Y-63529286D01*
X209518286Y-63672143D01*
X209446858Y-63886429D01*
X208589715Y-64743571D01*
X209518286Y-64743571D01*
X197232571Y-69543571D02*
X197232571Y-68543571D01*
X197232571Y-68686429D02*
X197303999Y-68615000D01*
X197446857Y-68543571D01*
X197661142Y-68543571D01*
X197803999Y-68615000D01*
X197875428Y-68757857D01*
X197875428Y-69543571D01*
X197875428Y-68757857D02*
X197946857Y-68615000D01*
X198089714Y-68543571D01*
X198303999Y-68543571D01*
X198446857Y-68615000D01*
X198518285Y-68757857D01*
X198518285Y-69543571D01*
X199232571Y-68543571D02*
X199232571Y-69543571D01*
X199232571Y-68686429D02*
X199303999Y-68615000D01*
X199446857Y-68543571D01*
X199661142Y-68543571D01*
X199803999Y-68615000D01*
X199875428Y-68757857D01*
X199875428Y-69543571D01*
X200375428Y-68543571D02*
X200946857Y-68543571D01*
X200589714Y-68043571D02*
X200589714Y-69329286D01*
X200661142Y-69472143D01*
X200804000Y-69543571D01*
X200946857Y-69543571D01*
X201446857Y-69543571D02*
X201446857Y-68543571D01*
X201446857Y-68686429D02*
X201518285Y-68615000D01*
X201661143Y-68543571D01*
X201875428Y-68543571D01*
X202018285Y-68615000D01*
X202089714Y-68757857D01*
X202089714Y-69543571D01*
X202089714Y-68757857D02*
X202161143Y-68615000D01*
X202304000Y-68543571D01*
X202518285Y-68543571D01*
X202661143Y-68615000D01*
X202732571Y-68757857D01*
X202732571Y-69543571D01*
X203446857Y-68543571D02*
X203446857Y-69543571D01*
X203446857Y-68686429D02*
X203518285Y-68615000D01*
X203661143Y-68543571D01*
X203875428Y-68543571D01*
X204018285Y-68615000D01*
X204089714Y-68757857D01*
X204089714Y-69543571D01*
X204804000Y-69400714D02*
X204875428Y-69472143D01*
X204804000Y-69543571D01*
X204732571Y-69472143D01*
X204804000Y-69400714D01*
X204804000Y-69543571D01*
X206161143Y-69472143D02*
X206018286Y-69543571D01*
X205732572Y-69543571D01*
X205589714Y-69472143D01*
X205518286Y-69400714D01*
X205446857Y-69257857D01*
X205446857Y-68829286D01*
X205518286Y-68686429D01*
X205589714Y-68615000D01*
X205732572Y-68543571D01*
X206018286Y-68543571D01*
X206161143Y-68615000D01*
X207018286Y-69543571D02*
X206875428Y-69472143D01*
X206804000Y-69400714D01*
X206732571Y-69257857D01*
X206732571Y-68829286D01*
X206804000Y-68686429D01*
X206875428Y-68615000D01*
X207018286Y-68543571D01*
X207232571Y-68543571D01*
X207375428Y-68615000D01*
X207446857Y-68686429D01*
X207518286Y-68829286D01*
X207518286Y-69257857D01*
X207446857Y-69400714D01*
X207375428Y-69472143D01*
X207232571Y-69543571D01*
X207018286Y-69543571D01*
X208161143Y-69543571D02*
X208161143Y-68543571D01*
X208161143Y-68686429D02*
X208232571Y-68615000D01*
X208375429Y-68543571D01*
X208589714Y-68543571D01*
X208732571Y-68615000D01*
X208804000Y-68757857D01*
X208804000Y-69543571D01*
X208804000Y-68757857D02*
X208875429Y-68615000D01*
X209018286Y-68543571D01*
X209232571Y-68543571D01*
X209375429Y-68615000D01*
X209446857Y-68757857D01*
X209446857Y-69543571D01*
D10*
X185547429Y-100707000D02*
X186261715Y-100707000D01*
X185404572Y-101135571D02*
X185904572Y-99635571D01*
X186404572Y-101135571D01*
X187547429Y-100135571D02*
X187547429Y-101135571D01*
X187190286Y-99564143D02*
X186833143Y-100635571D01*
X187761715Y-100635571D01*
X188333143Y-100564143D02*
X189476000Y-100564143D01*
X190976000Y-101135571D02*
X190118857Y-101135571D01*
X190547429Y-101135571D02*
X190547429Y-99635571D01*
X190404572Y-99849857D01*
X190261714Y-99992714D01*
X190118857Y-100064143D01*
X191547428Y-99778429D02*
X191618857Y-99707000D01*
X191761714Y-99635571D01*
X192118857Y-99635571D01*
X192261714Y-99707000D01*
X192333143Y-99778429D01*
X192404571Y-99921286D01*
X192404571Y-100064143D01*
X192333143Y-100278429D01*
X191476000Y-101135571D01*
X192404571Y-101135571D01*
X123615001Y-98892571D02*
X123615001Y-97392571D01*
X123972144Y-97392571D01*
X124186429Y-97464000D01*
X124329287Y-97606857D01*
X124400715Y-97749714D01*
X124472144Y-98035429D01*
X124472144Y-98249714D01*
X124400715Y-98535429D01*
X124329287Y-98678286D01*
X124186429Y-98821143D01*
X123972144Y-98892571D01*
X123615001Y-98892571D01*
X125400715Y-97392571D02*
X125543572Y-97392571D01*
X125686429Y-97464000D01*
X125757858Y-97535429D01*
X125829287Y-97678286D01*
X125900715Y-97964000D01*
X125900715Y-98321143D01*
X125829287Y-98606857D01*
X125757858Y-98749714D01*
X125686429Y-98821143D01*
X125543572Y-98892571D01*
X125400715Y-98892571D01*
X125257858Y-98821143D01*
X125186429Y-98749714D01*
X125115001Y-98606857D01*
X125043572Y-98321143D01*
X125043572Y-97964000D01*
X125115001Y-97678286D01*
X125186429Y-97535429D01*
X125257858Y-97464000D01*
X125400715Y-97392571D01*
X126543572Y-98321143D02*
X127686429Y-98321143D01*
X128329286Y-97535429D02*
X128400715Y-97464000D01*
X128543572Y-97392571D01*
X128900715Y-97392571D01*
X129043572Y-97464000D01*
X129115001Y-97535429D01*
X129186429Y-97678286D01*
X129186429Y-97821143D01*
X129115001Y-98035429D01*
X128257858Y-98892571D01*
X129186429Y-98892571D01*
X122186430Y-101092571D02*
X122186430Y-99592571D01*
X122543573Y-99592571D01*
X122757858Y-99664000D01*
X122900716Y-99806857D01*
X122972144Y-99949714D01*
X123043573Y-100235429D01*
X123043573Y-100449714D01*
X122972144Y-100735429D01*
X122900716Y-100878286D01*
X122757858Y-101021143D01*
X122543573Y-101092571D01*
X122186430Y-101092571D01*
X124472144Y-101092571D02*
X123615001Y-101092571D01*
X124043573Y-101092571D02*
X124043573Y-99592571D01*
X123900716Y-99806857D01*
X123757858Y-99949714D01*
X123615001Y-100021143D01*
X125900715Y-101092571D02*
X125043572Y-101092571D01*
X125472144Y-101092571D02*
X125472144Y-99592571D01*
X125329287Y-99806857D01*
X125186429Y-99949714D01*
X125043572Y-100021143D01*
X126543572Y-100521143D02*
X127686429Y-100521143D01*
X129186429Y-101092571D02*
X128329286Y-101092571D01*
X128757858Y-101092571D02*
X128757858Y-99592571D01*
X128615001Y-99806857D01*
X128472143Y-99949714D01*
X128329286Y-100021143D01*
X130543572Y-99592571D02*
X129829286Y-99592571D01*
X129757857Y-100306857D01*
X129829286Y-100235429D01*
X129972143Y-100164000D01*
X130329286Y-100164000D01*
X130472143Y-100235429D01*
X130543572Y-100306857D01*
X130615000Y-100449714D01*
X130615000Y-100806857D01*
X130543572Y-100949714D01*
X130472143Y-101021143D01*
X130329286Y-101092571D01*
X129972143Y-101092571D01*
X129829286Y-101021143D01*
X129757857Y-100949714D01*
X104358715Y-101135571D02*
X104358715Y-99635571D01*
X104715858Y-99635571D01*
X104930143Y-99707000D01*
X105073001Y-99849857D01*
X105144429Y-99992714D01*
X105215858Y-100278429D01*
X105215858Y-100492714D01*
X105144429Y-100778429D01*
X105073001Y-100921286D01*
X104930143Y-101064143D01*
X104715858Y-101135571D01*
X104358715Y-101135571D01*
X105715858Y-99635571D02*
X106644429Y-99635571D01*
X106144429Y-100207000D01*
X106358715Y-100207000D01*
X106501572Y-100278429D01*
X106573001Y-100349857D01*
X106644429Y-100492714D01*
X106644429Y-100849857D01*
X106573001Y-100992714D01*
X106501572Y-101064143D01*
X106358715Y-101135571D01*
X105930143Y-101135571D01*
X105787286Y-101064143D01*
X105715858Y-100992714D01*
X107287286Y-100564143D02*
X108430143Y-100564143D01*
X109930143Y-101135571D02*
X109073000Y-101135571D01*
X109501572Y-101135571D02*
X109501572Y-99635571D01*
X109358715Y-99849857D01*
X109215857Y-99992714D01*
X109073000Y-100064143D01*
X110858714Y-99635571D02*
X111001571Y-99635571D01*
X111144428Y-99707000D01*
X111215857Y-99778429D01*
X111287286Y-99921286D01*
X111358714Y-100207000D01*
X111358714Y-100564143D01*
X111287286Y-100849857D01*
X111215857Y-100992714D01*
X111144428Y-101064143D01*
X111001571Y-101135571D01*
X110858714Y-101135571D01*
X110715857Y-101064143D01*
X110644428Y-100992714D01*
X110573000Y-100849857D01*
X110501571Y-100564143D01*
X110501571Y-100207000D01*
X110573000Y-99921286D01*
X110644428Y-99778429D01*
X110715857Y-99707000D01*
X110858714Y-99635571D01*
D11*
X132322143Y-88943571D02*
X132322143Y-87443571D01*
X132679286Y-87443571D01*
X132893571Y-87515000D01*
X133036429Y-87657857D01*
X133107857Y-87800714D01*
X133179286Y-88086429D01*
X133179286Y-88300714D01*
X133107857Y-88586429D01*
X133036429Y-88729286D01*
X132893571Y-88872143D01*
X132679286Y-88943571D01*
X132322143Y-88943571D01*
X166203286Y-88157857D02*
X165703286Y-88157857D01*
X165703286Y-88943571D02*
X165703286Y-87443571D01*
X166417572Y-87443571D01*
X146617572Y-88157857D02*
X147117572Y-88157857D01*
X147331858Y-88943571D02*
X146617572Y-88943571D01*
X146617572Y-87443571D01*
X147331858Y-87443571D01*
X147554143Y-57042857D02*
X147768429Y-57114286D01*
X147839857Y-57185714D01*
X147911286Y-57328571D01*
X147911286Y-57542857D01*
X147839857Y-57685714D01*
X147768429Y-57757143D01*
X147625571Y-57828571D01*
X147054143Y-57828571D01*
X147054143Y-56328571D01*
X147554143Y-56328571D01*
X147697000Y-56400000D01*
X147768429Y-56471429D01*
X147839857Y-56614286D01*
X147839857Y-56757143D01*
X147768429Y-56900000D01*
X147697000Y-56971429D01*
X147554143Y-57042857D01*
X147054143Y-57042857D01*
X126515857Y-57400000D02*
X127230143Y-57400000D01*
X126373000Y-57828571D02*
X126873000Y-56328571D01*
X127373000Y-57828571D01*
D12*
X139128500Y-90805000D02*
X156908500Y-90805000D01*
X156908500Y-90805000D02*
X156908500Y-93345000D01*
X156908500Y-93345000D02*
X139128500Y-93345000D01*
X136308500Y-90525000D02*
X137858500Y-90525000D01*
X139128500Y-90805000D02*
X139128500Y-93345000D01*
X137858500Y-93625000D02*
X136308500Y-93625000D01*
X136308500Y-93625000D02*
X136308500Y-90525000D01*
X139128500Y-93281500D02*
X156908500Y-93281500D01*
X156908500Y-93281500D02*
X156908500Y-95821500D01*
X156908500Y-95821500D02*
X139128500Y-95821500D01*
X136308500Y-93001500D02*
X137858500Y-93001500D01*
X139128500Y-93281500D02*
X139128500Y-95821500D01*
X137858500Y-96101500D02*
X136308500Y-96101500D01*
X136308500Y-96101500D02*
X136308500Y-93001500D01*
X159448500Y-93281500D02*
X177228500Y-93281500D01*
X177228500Y-93281500D02*
X177228500Y-95821500D01*
X177228500Y-95821500D02*
X159448500Y-95821500D01*
X156628500Y-93001500D02*
X158178500Y-93001500D01*
X159448500Y-93281500D02*
X159448500Y-95821500D01*
X158178500Y-96101500D02*
X156628500Y-96101500D01*
X156628500Y-96101500D02*
X156628500Y-93001500D01*
X118618000Y-46355000D02*
X136398000Y-46355000D01*
X136398000Y-46355000D02*
X136398000Y-48895000D01*
X136398000Y-48895000D02*
X118618000Y-48895000D01*
X115798000Y-46075000D02*
X117348000Y-46075000D01*
X118618000Y-46355000D02*
X118618000Y-48895000D01*
X117348000Y-49175000D02*
X115798000Y-49175000D01*
X115798000Y-49175000D02*
X115798000Y-46075000D01*
X159448500Y-90805000D02*
X177228500Y-90805000D01*
X177228500Y-90805000D02*
X177228500Y-93345000D01*
X177228500Y-93345000D02*
X159448500Y-93345000D01*
X156628500Y-90525000D02*
X158178500Y-90525000D01*
X159448500Y-90805000D02*
X159448500Y-93345000D01*
X158178500Y-93625000D02*
X156628500Y-93625000D01*
X156628500Y-93625000D02*
X156628500Y-90525000D01*
X118618000Y-48895000D02*
X136398000Y-48895000D01*
X136398000Y-48895000D02*
X136398000Y-51435000D01*
X136398000Y-51435000D02*
X118618000Y-51435000D01*
X115798000Y-48615000D02*
X117348000Y-48615000D01*
X118618000Y-48895000D02*
X118618000Y-51435000D01*
X117348000Y-51715000D02*
X115798000Y-51715000D01*
X115798000Y-51715000D02*
X115798000Y-48615000D01*
X101639000Y-103513000D02*
X101639000Y-104513000D01*
X103339000Y-104513000D02*
X103339000Y-103513000D01*
X162838500Y-113466500D02*
X162838500Y-112466500D01*
X161138500Y-112466500D02*
X161138500Y-113466500D01*
X151232500Y-103449500D02*
X151232500Y-104449500D01*
X152932500Y-104449500D02*
X152932500Y-103449500D01*
X103339000Y-113530000D02*
X103339000Y-112530000D01*
X101639000Y-112530000D02*
X101639000Y-113530000D01*
X161011500Y-103449500D02*
X161011500Y-104449500D01*
X162711500Y-104449500D02*
X162711500Y-103449500D01*
X152932500Y-113339500D02*
X152932500Y-112339500D01*
X151232500Y-112339500D02*
X151232500Y-113339500D01*
X183300000Y-103513000D02*
X183300000Y-104513000D01*
X185000000Y-104513000D02*
X185000000Y-103513000D01*
X143026500Y-113339500D02*
X143026500Y-112339500D01*
X141326500Y-112339500D02*
X141326500Y-113339500D01*
X120562000Y-103513000D02*
X120562000Y-104513000D01*
X122262000Y-104513000D02*
X122262000Y-103513000D01*
X122262000Y-113530000D02*
X122262000Y-112530000D01*
X120562000Y-112530000D02*
X120562000Y-113530000D01*
X141326500Y-103449500D02*
X141326500Y-104449500D01*
X143026500Y-104449500D02*
X143026500Y-103449500D01*
X185000000Y-114673000D02*
X185000000Y-113673000D01*
X183300000Y-113673000D02*
X183300000Y-114673000D01*
X203184000Y-107628000D02*
X201184000Y-107628000D01*
X201184000Y-105478000D02*
X203184000Y-105478000D01*
X203184000Y-111819000D02*
X201184000Y-111819000D01*
X201184000Y-109669000D02*
X203184000Y-109669000D01*
X140013000Y-111649000D02*
X140013000Y-113649000D01*
X137863000Y-113649000D02*
X137863000Y-111649000D01*
X92583000Y-109093000D02*
X92583000Y-106553000D01*
X92303000Y-111913000D02*
X92303000Y-110363000D01*
X92583000Y-109093000D02*
X95123000Y-109093000D01*
X95403000Y-110363000D02*
X95403000Y-111913000D01*
X95403000Y-111913000D02*
X92303000Y-111913000D01*
X95123000Y-109093000D02*
X95123000Y-106553000D01*
X95123000Y-106553000D02*
X92583000Y-106553000D01*
X139065000Y-48895000D02*
X156845000Y-48895000D01*
X156845000Y-48895000D02*
X156845000Y-51435000D01*
X156845000Y-51435000D02*
X139065000Y-51435000D01*
X136245000Y-48615000D02*
X137795000Y-48615000D01*
X139065000Y-48895000D02*
X139065000Y-51435000D01*
X137795000Y-51715000D02*
X136245000Y-51715000D01*
X136245000Y-51715000D02*
X136245000Y-48615000D01*
X139065000Y-46355000D02*
X156845000Y-46355000D01*
X156845000Y-46355000D02*
X156845000Y-48895000D01*
X156845000Y-48895000D02*
X139065000Y-48895000D01*
X136245000Y-46075000D02*
X137795000Y-46075000D01*
X139065000Y-46355000D02*
X139065000Y-48895000D01*
X137795000Y-49175000D02*
X136245000Y-49175000D01*
X136245000Y-49175000D02*
X136245000Y-46075000D01*
X131572000Y-95885000D02*
X136652000Y-95885000D01*
X136652000Y-95885000D02*
X136652000Y-93345000D01*
X136652000Y-93345000D02*
X131572000Y-93345000D01*
X128752000Y-93065000D02*
X130302000Y-93065000D01*
X131572000Y-93345000D02*
X131572000Y-95885000D01*
X130302000Y-96165000D02*
X128752000Y-96165000D01*
X128752000Y-96165000D02*
X128752000Y-93065000D01*
D13*
G36*
X198215250Y-47984833D02*
X199707500Y-49476971D01*
X199707500Y-48000652D01*
X199707721Y-47754887D01*
X199708359Y-47521923D01*
X199709378Y-47305152D01*
X199710741Y-47107969D01*
X199712413Y-46933765D01*
X199714356Y-46785934D01*
X199716535Y-46667870D01*
X199718913Y-46582966D01*
X199721453Y-46534614D01*
X199723319Y-46524334D01*
X199740191Y-46538981D01*
X199784921Y-46581576D01*
X199855464Y-46650098D01*
X199949778Y-46742525D01*
X200065820Y-46856836D01*
X200201547Y-46991011D01*
X200354916Y-47143028D01*
X200523885Y-47310866D01*
X200706410Y-47492503D01*
X200900449Y-47685920D01*
X201103958Y-47889095D01*
X201215569Y-48000652D01*
X202692000Y-49476970D01*
X202692000Y-48000652D01*
X202692222Y-47754887D01*
X202692865Y-47521923D01*
X202693891Y-47305152D01*
X202695264Y-47107968D01*
X202696948Y-46933765D01*
X202698905Y-46785934D01*
X202701100Y-46667870D01*
X202703495Y-46582966D01*
X202706053Y-46534614D01*
X202707932Y-46524334D01*
X202724823Y-46538982D01*
X202769564Y-46581576D01*
X202840109Y-46650092D01*
X202934410Y-46742505D01*
X203050422Y-46856789D01*
X203186096Y-46990920D01*
X203339387Y-47142873D01*
X203508248Y-47310622D01*
X203690633Y-47492143D01*
X203884493Y-47685411D01*
X204087783Y-47888400D01*
X204194834Y-47995417D01*
X204402159Y-48202599D01*
X204601102Y-48401097D01*
X204789617Y-48588884D01*
X204965656Y-48763936D01*
X205127173Y-48924228D01*
X205272121Y-49067735D01*
X205398454Y-49192431D01*
X205504124Y-49296293D01*
X205587086Y-49377295D01*
X205645291Y-49433412D01*
X205676694Y-49462619D01*
X205681735Y-49466500D01*
X205685017Y-49446038D01*
X205688071Y-49387467D01*
X205690827Y-49295011D01*
X205693213Y-49172896D01*
X205695159Y-49025345D01*
X205696595Y-48856582D01*
X205697449Y-48670833D01*
X205697667Y-48514000D01*
X205697667Y-47561500D01*
X209423000Y-47561500D01*
X209423000Y-49042793D01*
X208306459Y-49048271D01*
X207189917Y-49053750D01*
X207184517Y-51075003D01*
X207179118Y-53096256D01*
X204194834Y-50112196D01*
X204194834Y-53096471D01*
X201210622Y-50112485D01*
X201205186Y-51599264D01*
X201199750Y-53086044D01*
X199712792Y-51599082D01*
X198225834Y-50112121D01*
X198225834Y-51286834D01*
X196723000Y-51286834D01*
X196723000Y-46492696D01*
X198215250Y-47984833D01*
X198215250Y-47984833D01*
G37*
X198215250Y-47984833D02*
X199707500Y-49476971D01*
X199707500Y-48000652D01*
X199707721Y-47754887D01*
X199708359Y-47521923D01*
X199709378Y-47305152D01*
X199710741Y-47107969D01*
X199712413Y-46933765D01*
X199714356Y-46785934D01*
X199716535Y-46667870D01*
X199718913Y-46582966D01*
X199721453Y-46534614D01*
X199723319Y-46524334D01*
X199740191Y-46538981D01*
X199784921Y-46581576D01*
X199855464Y-46650098D01*
X199949778Y-46742525D01*
X200065820Y-46856836D01*
X200201547Y-46991011D01*
X200354916Y-47143028D01*
X200523885Y-47310866D01*
X200706410Y-47492503D01*
X200900449Y-47685920D01*
X201103958Y-47889095D01*
X201215569Y-48000652D01*
X202692000Y-49476970D01*
X202692000Y-48000652D01*
X202692222Y-47754887D01*
X202692865Y-47521923D01*
X202693891Y-47305152D01*
X202695264Y-47107968D01*
X202696948Y-46933765D01*
X202698905Y-46785934D01*
X202701100Y-46667870D01*
X202703495Y-46582966D01*
X202706053Y-46534614D01*
X202707932Y-46524334D01*
X202724823Y-46538982D01*
X202769564Y-46581576D01*
X202840109Y-46650092D01*
X202934410Y-46742505D01*
X203050422Y-46856789D01*
X203186096Y-46990920D01*
X203339387Y-47142873D01*
X203508248Y-47310622D01*
X203690633Y-47492143D01*
X203884493Y-47685411D01*
X204087783Y-47888400D01*
X204194834Y-47995417D01*
X204402159Y-48202599D01*
X204601102Y-48401097D01*
X204789617Y-48588884D01*
X204965656Y-48763936D01*
X205127173Y-48924228D01*
X205272121Y-49067735D01*
X205398454Y-49192431D01*
X205504124Y-49296293D01*
X205587086Y-49377295D01*
X205645291Y-49433412D01*
X205676694Y-49462619D01*
X205681735Y-49466500D01*
X205685017Y-49446038D01*
X205688071Y-49387467D01*
X205690827Y-49295011D01*
X205693213Y-49172896D01*
X205695159Y-49025345D01*
X205696595Y-48856582D01*
X205697449Y-48670833D01*
X205697667Y-48514000D01*
X205697667Y-47561500D01*
X209423000Y-47561500D01*
X209423000Y-49042793D01*
X208306459Y-49048271D01*
X207189917Y-49053750D01*
X207184517Y-51075003D01*
X207179118Y-53096256D01*
X204194834Y-50112196D01*
X204194834Y-53096471D01*
X201210622Y-50112485D01*
X201205186Y-51599264D01*
X201199750Y-53086044D01*
X199712792Y-51599082D01*
X198225834Y-50112121D01*
X198225834Y-51286834D01*
X196723000Y-51286834D01*
X196723000Y-46492696D01*
X198215250Y-47984833D01*
D14*
X185676540Y-109959140D02*
G75*
G03X185676540Y-109959140I-101600J0D01*
G01*
D15*
X192874900Y-106359960D02*
X192874900Y-110556040D01*
X185077100Y-106359960D02*
X185077100Y-110556040D01*
D14*
X103888540Y-110022640D02*
G75*
G03X103888540Y-110022640I-101600J0D01*
G01*
D15*
X111086900Y-106423460D02*
X111086900Y-110619540D01*
X103289100Y-106423460D02*
X103289100Y-110619540D01*
D14*
X153482040Y-109921040D02*
G75*
G03X153482040Y-109921040I-101600J0D01*
G01*
D15*
X160680400Y-106321860D02*
X160680400Y-110517940D01*
X152882600Y-106321860D02*
X152882600Y-110517940D01*
D14*
X143652240Y-109946440D02*
G75*
G03X143652240Y-109946440I-101600J0D01*
G01*
D15*
X150850600Y-106347260D02*
X150850600Y-110543340D01*
X143052800Y-106347260D02*
X143052800Y-110543340D01*
D14*
X163324540Y-109959140D02*
G75*
G03X163324540Y-109959140I-101600J0D01*
G01*
D15*
X170522900Y-106359960D02*
X170522900Y-110556040D01*
X162725100Y-106359960D02*
X162725100Y-110556040D01*
D14*
X122811540Y-110022640D02*
G75*
G03X122811540Y-110022640I-101600J0D01*
G01*
D15*
X130009900Y-106423460D02*
X130009900Y-110619540D01*
X122212100Y-106423460D02*
X122212100Y-110619540D01*
D12*
X147201286Y-135350143D02*
X147153667Y-135397762D01*
X147010810Y-135445381D01*
X146915572Y-135445381D01*
X146772714Y-135397762D01*
X146677476Y-135302524D01*
X146629857Y-135207286D01*
X146582238Y-135016810D01*
X146582238Y-134873952D01*
X146629857Y-134683476D01*
X146677476Y-134588238D01*
X146772714Y-134493000D01*
X146915572Y-134445381D01*
X147010810Y-134445381D01*
X147153667Y-134493000D01*
X147201286Y-134540619D01*
X147820333Y-134445381D02*
X148010810Y-134445381D01*
X148106048Y-134493000D01*
X148201286Y-134588238D01*
X148248905Y-134778714D01*
X148248905Y-135112048D01*
X148201286Y-135302524D01*
X148106048Y-135397762D01*
X148010810Y-135445381D01*
X147820333Y-135445381D01*
X147725095Y-135397762D01*
X147629857Y-135302524D01*
X147582238Y-135112048D01*
X147582238Y-134778714D01*
X147629857Y-134588238D01*
X147725095Y-134493000D01*
X147820333Y-134445381D01*
X148677476Y-135445381D02*
X148677476Y-134445381D01*
X149248905Y-135445381D01*
X149248905Y-134445381D01*
X149725095Y-135064429D02*
X150487000Y-135064429D01*
X150867952Y-134445381D02*
X151534619Y-134445381D01*
X150867952Y-135445381D01*
X151534619Y-135445381D01*
X151867952Y-134540619D02*
X151915571Y-134493000D01*
X152010809Y-134445381D01*
X152248905Y-134445381D01*
X152344143Y-134493000D01*
X152391762Y-134540619D01*
X152439381Y-134635857D01*
X152439381Y-134731095D01*
X152391762Y-134873952D01*
X151820333Y-135445381D01*
X152439381Y-135445381D01*
X153391762Y-135445381D02*
X152820333Y-135445381D01*
X153106047Y-135445381D02*
X153106047Y-134445381D01*
X153010809Y-134588238D01*
X152915571Y-134683476D01*
X152820333Y-134731095D01*
X133210881Y-92813095D02*
X132210881Y-92813095D01*
X132210881Y-92432142D01*
X132258500Y-92336904D01*
X132306119Y-92289285D01*
X132401357Y-92241666D01*
X132544214Y-92241666D01*
X132639452Y-92289285D01*
X132687071Y-92336904D01*
X132734690Y-92432142D01*
X132734690Y-92813095D01*
X133210881Y-91289285D02*
X133210881Y-91860714D01*
X133210881Y-91575000D02*
X132210881Y-91575000D01*
X132353738Y-91670238D01*
X132448976Y-91765476D01*
X132496595Y-91860714D01*
X133210881Y-95289595D02*
X132210881Y-95289595D01*
X132210881Y-94908642D01*
X132258500Y-94813404D01*
X132306119Y-94765785D01*
X132401357Y-94718166D01*
X132544214Y-94718166D01*
X132639452Y-94765785D01*
X132687071Y-94813404D01*
X132734690Y-94908642D01*
X132734690Y-95289595D01*
X132306119Y-94337214D02*
X132258500Y-94289595D01*
X132210881Y-94194357D01*
X132210881Y-93956261D01*
X132258500Y-93861023D01*
X132306119Y-93813404D01*
X132401357Y-93765785D01*
X132496595Y-93765785D01*
X132639452Y-93813404D01*
X133210881Y-94384833D01*
X133210881Y-93765785D01*
X153530881Y-95289595D02*
X152530881Y-95289595D01*
X152530881Y-94908642D01*
X152578500Y-94813404D01*
X152626119Y-94765785D01*
X152721357Y-94718166D01*
X152864214Y-94718166D01*
X152959452Y-94765785D01*
X153007071Y-94813404D01*
X153054690Y-94908642D01*
X153054690Y-95289595D01*
X152530881Y-94384833D02*
X152530881Y-93765785D01*
X152911833Y-94099119D01*
X152911833Y-93956261D01*
X152959452Y-93861023D01*
X153007071Y-93813404D01*
X153102310Y-93765785D01*
X153340405Y-93765785D01*
X153435643Y-93813404D01*
X153483262Y-93861023D01*
X153530881Y-93956261D01*
X153530881Y-94241976D01*
X153483262Y-94337214D01*
X153435643Y-94384833D01*
X112700381Y-48363095D02*
X111700381Y-48363095D01*
X111700381Y-47982142D01*
X111748000Y-47886904D01*
X111795619Y-47839285D01*
X111890857Y-47791666D01*
X112033714Y-47791666D01*
X112128952Y-47839285D01*
X112176571Y-47886904D01*
X112224190Y-47982142D01*
X112224190Y-48363095D01*
X112033714Y-46934523D02*
X112700381Y-46934523D01*
X111652762Y-47172619D02*
X112367048Y-47410714D01*
X112367048Y-46791666D01*
X153530881Y-92813095D02*
X152530881Y-92813095D01*
X152530881Y-92432142D01*
X152578500Y-92336904D01*
X152626119Y-92289285D01*
X152721357Y-92241666D01*
X152864214Y-92241666D01*
X152959452Y-92289285D01*
X153007071Y-92336904D01*
X153054690Y-92432142D01*
X153054690Y-92813095D01*
X152530881Y-91336904D02*
X152530881Y-91813095D01*
X153007071Y-91860714D01*
X152959452Y-91813095D01*
X152911833Y-91717857D01*
X152911833Y-91479761D01*
X152959452Y-91384523D01*
X153007071Y-91336904D01*
X153102310Y-91289285D01*
X153340405Y-91289285D01*
X153435643Y-91336904D01*
X153483262Y-91384523D01*
X153530881Y-91479761D01*
X153530881Y-91717857D01*
X153483262Y-91813095D01*
X153435643Y-91860714D01*
X112700381Y-50903095D02*
X111700381Y-50903095D01*
X111700381Y-50522142D01*
X111748000Y-50426904D01*
X111795619Y-50379285D01*
X111890857Y-50331666D01*
X112033714Y-50331666D01*
X112128952Y-50379285D01*
X112176571Y-50426904D01*
X112224190Y-50522142D01*
X112224190Y-50903095D01*
X111700381Y-49474523D02*
X111700381Y-49665000D01*
X111748000Y-49760238D01*
X111795619Y-49807857D01*
X111938476Y-49903095D01*
X112128952Y-49950714D01*
X112509905Y-49950714D01*
X112605143Y-49903095D01*
X112652762Y-49855476D01*
X112700381Y-49760238D01*
X112700381Y-49569761D01*
X112652762Y-49474523D01*
X112605143Y-49426904D01*
X112509905Y-49379285D01*
X112271810Y-49379285D01*
X112176571Y-49426904D01*
X112128952Y-49474523D01*
X112081333Y-49569761D01*
X112081333Y-49760238D01*
X112128952Y-49855476D01*
X112176571Y-49903095D01*
X112271810Y-49950714D01*
X100746143Y-104179666D02*
X100793762Y-104227285D01*
X100841381Y-104370142D01*
X100841381Y-104465380D01*
X100793762Y-104608238D01*
X100698524Y-104703476D01*
X100603286Y-104751095D01*
X100412810Y-104798714D01*
X100269952Y-104798714D01*
X100079476Y-104751095D01*
X99984238Y-104703476D01*
X99889000Y-104608238D01*
X99841381Y-104465380D01*
X99841381Y-104370142D01*
X99889000Y-104227285D01*
X99936619Y-104179666D01*
X100841381Y-103227285D02*
X100841381Y-103798714D01*
X100841381Y-103513000D02*
X99841381Y-103513000D01*
X99984238Y-103608238D01*
X100079476Y-103703476D01*
X100127095Y-103798714D01*
X164445643Y-113133166D02*
X164493262Y-113180785D01*
X164540881Y-113323642D01*
X164540881Y-113418880D01*
X164493262Y-113561738D01*
X164398024Y-113656976D01*
X164302786Y-113704595D01*
X164112310Y-113752214D01*
X163969452Y-113752214D01*
X163778976Y-113704595D01*
X163683738Y-113656976D01*
X163588500Y-113561738D01*
X163540881Y-113418880D01*
X163540881Y-113323642D01*
X163588500Y-113180785D01*
X163636119Y-113133166D01*
X163636119Y-112752214D02*
X163588500Y-112704595D01*
X163540881Y-112609357D01*
X163540881Y-112371261D01*
X163588500Y-112276023D01*
X163636119Y-112228404D01*
X163731357Y-112180785D01*
X163826595Y-112180785D01*
X163969452Y-112228404D01*
X164540881Y-112799833D01*
X164540881Y-112180785D01*
X150339643Y-104116166D02*
X150387262Y-104163785D01*
X150434881Y-104306642D01*
X150434881Y-104401880D01*
X150387262Y-104544738D01*
X150292024Y-104639976D01*
X150196786Y-104687595D01*
X150006310Y-104735214D01*
X149863452Y-104735214D01*
X149672976Y-104687595D01*
X149577738Y-104639976D01*
X149482500Y-104544738D01*
X149434881Y-104401880D01*
X149434881Y-104306642D01*
X149482500Y-104163785D01*
X149530119Y-104116166D01*
X149434881Y-103782833D02*
X149434881Y-103163785D01*
X149815833Y-103497119D01*
X149815833Y-103354261D01*
X149863452Y-103259023D01*
X149911071Y-103211404D01*
X150006310Y-103163785D01*
X150244405Y-103163785D01*
X150339643Y-103211404D01*
X150387262Y-103259023D01*
X150434881Y-103354261D01*
X150434881Y-103639976D01*
X150387262Y-103735214D01*
X150339643Y-103782833D01*
X104946143Y-113196666D02*
X104993762Y-113244285D01*
X105041381Y-113387142D01*
X105041381Y-113482380D01*
X104993762Y-113625238D01*
X104898524Y-113720476D01*
X104803286Y-113768095D01*
X104612810Y-113815714D01*
X104469952Y-113815714D01*
X104279476Y-113768095D01*
X104184238Y-113720476D01*
X104089000Y-113625238D01*
X104041381Y-113482380D01*
X104041381Y-113387142D01*
X104089000Y-113244285D01*
X104136619Y-113196666D01*
X104374714Y-112339523D02*
X105041381Y-112339523D01*
X103993762Y-112577619D02*
X104708048Y-112815714D01*
X104708048Y-112196666D01*
X160118643Y-104116166D02*
X160166262Y-104163785D01*
X160213881Y-104306642D01*
X160213881Y-104401880D01*
X160166262Y-104544738D01*
X160071024Y-104639976D01*
X159975786Y-104687595D01*
X159785310Y-104735214D01*
X159642452Y-104735214D01*
X159451976Y-104687595D01*
X159356738Y-104639976D01*
X159261500Y-104544738D01*
X159213881Y-104401880D01*
X159213881Y-104306642D01*
X159261500Y-104163785D01*
X159309119Y-104116166D01*
X159213881Y-103211404D02*
X159213881Y-103687595D01*
X159690071Y-103735214D01*
X159642452Y-103687595D01*
X159594833Y-103592357D01*
X159594833Y-103354261D01*
X159642452Y-103259023D01*
X159690071Y-103211404D01*
X159785310Y-103163785D01*
X160023405Y-103163785D01*
X160118643Y-103211404D01*
X160166262Y-103259023D01*
X160213881Y-103354261D01*
X160213881Y-103592357D01*
X160166262Y-103687595D01*
X160118643Y-103735214D01*
X154539643Y-113006166D02*
X154587262Y-113053785D01*
X154634881Y-113196642D01*
X154634881Y-113291880D01*
X154587262Y-113434738D01*
X154492024Y-113529976D01*
X154396786Y-113577595D01*
X154206310Y-113625214D01*
X154063452Y-113625214D01*
X153872976Y-113577595D01*
X153777738Y-113529976D01*
X153682500Y-113434738D01*
X153634881Y-113291880D01*
X153634881Y-113196642D01*
X153682500Y-113053785D01*
X153730119Y-113006166D01*
X153634881Y-112149023D02*
X153634881Y-112339500D01*
X153682500Y-112434738D01*
X153730119Y-112482357D01*
X153872976Y-112577595D01*
X154063452Y-112625214D01*
X154444405Y-112625214D01*
X154539643Y-112577595D01*
X154587262Y-112529976D01*
X154634881Y-112434738D01*
X154634881Y-112244261D01*
X154587262Y-112149023D01*
X154539643Y-112101404D01*
X154444405Y-112053785D01*
X154206310Y-112053785D01*
X154111071Y-112101404D01*
X154063452Y-112149023D01*
X154015833Y-112244261D01*
X154015833Y-112434738D01*
X154063452Y-112529976D01*
X154111071Y-112577595D01*
X154206310Y-112625214D01*
X182407143Y-104179666D02*
X182454762Y-104227285D01*
X182502381Y-104370142D01*
X182502381Y-104465380D01*
X182454762Y-104608238D01*
X182359524Y-104703476D01*
X182264286Y-104751095D01*
X182073810Y-104798714D01*
X181930952Y-104798714D01*
X181740476Y-104751095D01*
X181645238Y-104703476D01*
X181550000Y-104608238D01*
X181502381Y-104465380D01*
X181502381Y-104370142D01*
X181550000Y-104227285D01*
X181597619Y-104179666D01*
X181502381Y-103846333D02*
X181502381Y-103179666D01*
X182502381Y-103608238D01*
X144633643Y-113006166D02*
X144681262Y-113053785D01*
X144728881Y-113196642D01*
X144728881Y-113291880D01*
X144681262Y-113434738D01*
X144586024Y-113529976D01*
X144490786Y-113577595D01*
X144300310Y-113625214D01*
X144157452Y-113625214D01*
X143966976Y-113577595D01*
X143871738Y-113529976D01*
X143776500Y-113434738D01*
X143728881Y-113291880D01*
X143728881Y-113196642D01*
X143776500Y-113053785D01*
X143824119Y-113006166D01*
X144157452Y-112434738D02*
X144109833Y-112529976D01*
X144062214Y-112577595D01*
X143966976Y-112625214D01*
X143919357Y-112625214D01*
X143824119Y-112577595D01*
X143776500Y-112529976D01*
X143728881Y-112434738D01*
X143728881Y-112244261D01*
X143776500Y-112149023D01*
X143824119Y-112101404D01*
X143919357Y-112053785D01*
X143966976Y-112053785D01*
X144062214Y-112101404D01*
X144109833Y-112149023D01*
X144157452Y-112244261D01*
X144157452Y-112434738D01*
X144205071Y-112529976D01*
X144252690Y-112577595D01*
X144347929Y-112625214D01*
X144538405Y-112625214D01*
X144633643Y-112577595D01*
X144681262Y-112529976D01*
X144728881Y-112434738D01*
X144728881Y-112244261D01*
X144681262Y-112149023D01*
X144633643Y-112101404D01*
X144538405Y-112053785D01*
X144347929Y-112053785D01*
X144252690Y-112101404D01*
X144205071Y-112149023D01*
X144157452Y-112244261D01*
X119669143Y-104179666D02*
X119716762Y-104227285D01*
X119764381Y-104370142D01*
X119764381Y-104465380D01*
X119716762Y-104608238D01*
X119621524Y-104703476D01*
X119526286Y-104751095D01*
X119335810Y-104798714D01*
X119192952Y-104798714D01*
X119002476Y-104751095D01*
X118907238Y-104703476D01*
X118812000Y-104608238D01*
X118764381Y-104465380D01*
X118764381Y-104370142D01*
X118812000Y-104227285D01*
X118859619Y-104179666D01*
X119764381Y-103703476D02*
X119764381Y-103513000D01*
X119716762Y-103417761D01*
X119669143Y-103370142D01*
X119526286Y-103274904D01*
X119335810Y-103227285D01*
X118954857Y-103227285D01*
X118859619Y-103274904D01*
X118812000Y-103322523D01*
X118764381Y-103417761D01*
X118764381Y-103608238D01*
X118812000Y-103703476D01*
X118859619Y-103751095D01*
X118954857Y-103798714D01*
X119192952Y-103798714D01*
X119288190Y-103751095D01*
X119335810Y-103703476D01*
X119383429Y-103608238D01*
X119383429Y-103417761D01*
X119335810Y-103322523D01*
X119288190Y-103274904D01*
X119192952Y-103227285D01*
X123869143Y-113672857D02*
X123916762Y-113720476D01*
X123964381Y-113863333D01*
X123964381Y-113958571D01*
X123916762Y-114101429D01*
X123821524Y-114196667D01*
X123726286Y-114244286D01*
X123535810Y-114291905D01*
X123392952Y-114291905D01*
X123202476Y-114244286D01*
X123107238Y-114196667D01*
X123012000Y-114101429D01*
X122964381Y-113958571D01*
X122964381Y-113863333D01*
X123012000Y-113720476D01*
X123059619Y-113672857D01*
X123964381Y-112720476D02*
X123964381Y-113291905D01*
X123964381Y-113006191D02*
X122964381Y-113006191D01*
X123107238Y-113101429D01*
X123202476Y-113196667D01*
X123250095Y-113291905D01*
X122964381Y-112101429D02*
X122964381Y-112006190D01*
X123012000Y-111910952D01*
X123059619Y-111863333D01*
X123154857Y-111815714D01*
X123345333Y-111768095D01*
X123583429Y-111768095D01*
X123773905Y-111815714D01*
X123869143Y-111863333D01*
X123916762Y-111910952D01*
X123964381Y-112006190D01*
X123964381Y-112101429D01*
X123916762Y-112196667D01*
X123869143Y-112244286D01*
X123773905Y-112291905D01*
X123583429Y-112339524D01*
X123345333Y-112339524D01*
X123154857Y-112291905D01*
X123059619Y-112244286D01*
X123012000Y-112196667D01*
X122964381Y-112101429D01*
X140433643Y-104592357D02*
X140481262Y-104639976D01*
X140528881Y-104782833D01*
X140528881Y-104878071D01*
X140481262Y-105020929D01*
X140386024Y-105116167D01*
X140290786Y-105163786D01*
X140100310Y-105211405D01*
X139957452Y-105211405D01*
X139766976Y-105163786D01*
X139671738Y-105116167D01*
X139576500Y-105020929D01*
X139528881Y-104878071D01*
X139528881Y-104782833D01*
X139576500Y-104639976D01*
X139624119Y-104592357D01*
X140528881Y-103639976D02*
X140528881Y-104211405D01*
X140528881Y-103925691D02*
X139528881Y-103925691D01*
X139671738Y-104020929D01*
X139766976Y-104116167D01*
X139814595Y-104211405D01*
X140528881Y-102687595D02*
X140528881Y-103259024D01*
X140528881Y-102973310D02*
X139528881Y-102973310D01*
X139671738Y-103068548D01*
X139766976Y-103163786D01*
X139814595Y-103259024D01*
X186607143Y-114815857D02*
X186654762Y-114863476D01*
X186702381Y-115006333D01*
X186702381Y-115101571D01*
X186654762Y-115244429D01*
X186559524Y-115339667D01*
X186464286Y-115387286D01*
X186273810Y-115434905D01*
X186130952Y-115434905D01*
X185940476Y-115387286D01*
X185845238Y-115339667D01*
X185750000Y-115244429D01*
X185702381Y-115101571D01*
X185702381Y-115006333D01*
X185750000Y-114863476D01*
X185797619Y-114815857D01*
X186702381Y-113863476D02*
X186702381Y-114434905D01*
X186702381Y-114149191D02*
X185702381Y-114149191D01*
X185845238Y-114244429D01*
X185940476Y-114339667D01*
X185988095Y-114434905D01*
X185797619Y-113482524D02*
X185750000Y-113434905D01*
X185702381Y-113339667D01*
X185702381Y-113101571D01*
X185750000Y-113006333D01*
X185797619Y-112958714D01*
X185892857Y-112911095D01*
X185988095Y-112911095D01*
X186130952Y-112958714D01*
X186702381Y-113530143D01*
X186702381Y-112911095D01*
X202017334Y-104705381D02*
X201684000Y-104229190D01*
X201445905Y-104705381D02*
X201445905Y-103705381D01*
X201826858Y-103705381D01*
X201922096Y-103753000D01*
X201969715Y-103800619D01*
X202017334Y-103895857D01*
X202017334Y-104038714D01*
X201969715Y-104133952D01*
X201922096Y-104181571D01*
X201826858Y-104229190D01*
X201445905Y-104229190D01*
X202969715Y-104705381D02*
X202398286Y-104705381D01*
X202684000Y-104705381D02*
X202684000Y-103705381D01*
X202588762Y-103848238D01*
X202493524Y-103943476D01*
X202398286Y-103991095D01*
X202017334Y-108896381D02*
X201684000Y-108420190D01*
X201445905Y-108896381D02*
X201445905Y-107896381D01*
X201826858Y-107896381D01*
X201922096Y-107944000D01*
X201969715Y-107991619D01*
X202017334Y-108086857D01*
X202017334Y-108229714D01*
X201969715Y-108324952D01*
X201922096Y-108372571D01*
X201826858Y-108420190D01*
X201445905Y-108420190D01*
X202398286Y-107991619D02*
X202445905Y-107944000D01*
X202541143Y-107896381D01*
X202779239Y-107896381D01*
X202874477Y-107944000D01*
X202922096Y-107991619D01*
X202969715Y-108086857D01*
X202969715Y-108182095D01*
X202922096Y-108324952D01*
X202350667Y-108896381D01*
X202969715Y-108896381D01*
X137090381Y-112815666D02*
X136614190Y-113149000D01*
X137090381Y-113387095D02*
X136090381Y-113387095D01*
X136090381Y-113006142D01*
X136138000Y-112910904D01*
X136185619Y-112863285D01*
X136280857Y-112815666D01*
X136423714Y-112815666D01*
X136518952Y-112863285D01*
X136566571Y-112910904D01*
X136614190Y-113006142D01*
X136614190Y-113387095D01*
X136090381Y-112482333D02*
X136090381Y-111863285D01*
X136471333Y-112196619D01*
X136471333Y-112053761D01*
X136518952Y-111958523D01*
X136566571Y-111910904D01*
X136661810Y-111863285D01*
X136899905Y-111863285D01*
X136995143Y-111910904D01*
X137042762Y-111958523D01*
X137090381Y-112053761D01*
X137090381Y-112339476D01*
X137042762Y-112434714D01*
X136995143Y-112482333D01*
X93114905Y-115915381D02*
X93114905Y-114915381D01*
X93495858Y-114915381D01*
X93591096Y-114963000D01*
X93638715Y-115010619D01*
X93686334Y-115105857D01*
X93686334Y-115248714D01*
X93638715Y-115343952D01*
X93591096Y-115391571D01*
X93495858Y-115439190D01*
X93114905Y-115439190D01*
X94257762Y-115343952D02*
X94162524Y-115296333D01*
X94114905Y-115248714D01*
X94067286Y-115153476D01*
X94067286Y-115105857D01*
X94114905Y-115010619D01*
X94162524Y-114963000D01*
X94257762Y-114915381D01*
X94448239Y-114915381D01*
X94543477Y-114963000D01*
X94591096Y-115010619D01*
X94638715Y-115105857D01*
X94638715Y-115153476D01*
X94591096Y-115248714D01*
X94543477Y-115296333D01*
X94448239Y-115343952D01*
X94257762Y-115343952D01*
X94162524Y-115391571D01*
X94114905Y-115439190D01*
X94067286Y-115534429D01*
X94067286Y-115724905D01*
X94114905Y-115820143D01*
X94162524Y-115867762D01*
X94257762Y-115915381D01*
X94448239Y-115915381D01*
X94543477Y-115867762D01*
X94591096Y-115820143D01*
X94638715Y-115724905D01*
X94638715Y-115534429D01*
X94591096Y-115439190D01*
X94543477Y-115391571D01*
X94448239Y-115343952D01*
X133147381Y-51379286D02*
X132147381Y-51379286D01*
X132147381Y-50998333D01*
X132195000Y-50903095D01*
X132242619Y-50855476D01*
X132337857Y-50807857D01*
X132480714Y-50807857D01*
X132575952Y-50855476D01*
X132623571Y-50903095D01*
X132671190Y-50998333D01*
X132671190Y-51379286D01*
X133147381Y-49855476D02*
X133147381Y-50426905D01*
X133147381Y-50141191D02*
X132147381Y-50141191D01*
X132290238Y-50236429D01*
X132385476Y-50331667D01*
X132433095Y-50426905D01*
X132147381Y-49522143D02*
X132147381Y-48903095D01*
X132528333Y-49236429D01*
X132528333Y-49093571D01*
X132575952Y-48998333D01*
X132623571Y-48950714D01*
X132718810Y-48903095D01*
X132956905Y-48903095D01*
X133052143Y-48950714D01*
X133099762Y-48998333D01*
X133147381Y-49093571D01*
X133147381Y-49379286D01*
X133099762Y-49474524D01*
X133052143Y-49522143D01*
X133147381Y-48839286D02*
X132147381Y-48839286D01*
X132147381Y-48458333D01*
X132195000Y-48363095D01*
X132242619Y-48315476D01*
X132337857Y-48267857D01*
X132480714Y-48267857D01*
X132575952Y-48315476D01*
X132623571Y-48363095D01*
X132671190Y-48458333D01*
X132671190Y-48839286D01*
X133147381Y-47315476D02*
X133147381Y-47886905D01*
X133147381Y-47601191D02*
X132147381Y-47601191D01*
X132290238Y-47696429D01*
X132385476Y-47791667D01*
X132433095Y-47886905D01*
X132480714Y-46458333D02*
X133147381Y-46458333D01*
X132099762Y-46696429D02*
X132814048Y-46934524D01*
X132814048Y-46315476D01*
X125654381Y-95829286D02*
X124654381Y-95829286D01*
X124654381Y-95448333D01*
X124702000Y-95353095D01*
X124749619Y-95305476D01*
X124844857Y-95257857D01*
X124987714Y-95257857D01*
X125082952Y-95305476D01*
X125130571Y-95353095D01*
X125178190Y-95448333D01*
X125178190Y-95829286D01*
X125654381Y-94305476D02*
X125654381Y-94876905D01*
X125654381Y-94591191D02*
X124654381Y-94591191D01*
X124797238Y-94686429D01*
X124892476Y-94781667D01*
X124940095Y-94876905D01*
X124654381Y-93448333D02*
X124654381Y-93638810D01*
X124702000Y-93734048D01*
X124749619Y-93781667D01*
X124892476Y-93876905D01*
X125082952Y-93924524D01*
X125463905Y-93924524D01*
X125559143Y-93876905D01*
X125606762Y-93829286D01*
X125654381Y-93734048D01*
X125654381Y-93543571D01*
X125606762Y-93448333D01*
X125559143Y-93400714D01*
X125463905Y-93353095D01*
X125225810Y-93353095D01*
X125130571Y-93400714D01*
X125082952Y-93448333D01*
X125035333Y-93543571D01*
X125035333Y-93734048D01*
X125082952Y-93829286D01*
X125130571Y-93876905D01*
X125225810Y-93924524D01*
D16*
X188747642Y-108293868D02*
X188747642Y-108536498D01*
X188761914Y-108565043D01*
X188776187Y-108579315D01*
X188804731Y-108593588D01*
X188861821Y-108593588D01*
X188890366Y-108579315D01*
X188904638Y-108565043D01*
X188918910Y-108536498D01*
X188918910Y-108293868D01*
X189204358Y-108293868D02*
X189061634Y-108293868D01*
X189047362Y-108436591D01*
X189061634Y-108422319D01*
X189090179Y-108408047D01*
X189161541Y-108408047D01*
X189190085Y-108422319D01*
X189204358Y-108436591D01*
X189218630Y-108465136D01*
X189218630Y-108536498D01*
X189204358Y-108565043D01*
X189190085Y-108579315D01*
X189161541Y-108593588D01*
X189090179Y-108593588D01*
X189061634Y-108579315D01*
X189047362Y-108565043D01*
D17*
D16*
X187648668Y-107023868D02*
X187848481Y-107023868D01*
X187720030Y-107323588D01*
X188091112Y-107123774D02*
X188091112Y-107323588D01*
X188019750Y-107009595D02*
X187948389Y-107223681D01*
X188133929Y-107223681D01*
X188390833Y-107323588D02*
X188248109Y-107323588D01*
X188248109Y-107023868D01*
X188447922Y-107023868D02*
X188547828Y-107323588D01*
X188647735Y-107023868D01*
X188918910Y-107295043D02*
X188904638Y-107309315D01*
X188861821Y-107323588D01*
X188833276Y-107323588D01*
X188790459Y-107309315D01*
X188761914Y-107280770D01*
X188747642Y-107252226D01*
X188733370Y-107195136D01*
X188733370Y-107152319D01*
X188747642Y-107095230D01*
X188761914Y-107066685D01*
X188790459Y-107038140D01*
X188833276Y-107023868D01*
X188861821Y-107023868D01*
X188904638Y-107038140D01*
X188918910Y-107052412D01*
X189090179Y-107152319D02*
X189061634Y-107138047D01*
X189047362Y-107123774D01*
X189033090Y-107095230D01*
X189033090Y-107080957D01*
X189047362Y-107052412D01*
X189061634Y-107038140D01*
X189090179Y-107023868D01*
X189147269Y-107023868D01*
X189175813Y-107038140D01*
X189190086Y-107052412D01*
X189204358Y-107080957D01*
X189204358Y-107095230D01*
X189190086Y-107123774D01*
X189175813Y-107138047D01*
X189147269Y-107152319D01*
X189090179Y-107152319D01*
X189061634Y-107166591D01*
X189047362Y-107180864D01*
X189033090Y-107209409D01*
X189033090Y-107266498D01*
X189047362Y-107295043D01*
X189061634Y-107309315D01*
X189090179Y-107323588D01*
X189147269Y-107323588D01*
X189175813Y-107309315D01*
X189190086Y-107295043D01*
X189204358Y-107266498D01*
X189204358Y-107209409D01*
X189190086Y-107180864D01*
X189175813Y-107166591D01*
X189147269Y-107152319D01*
X189289993Y-107023868D02*
X189461261Y-107023868D01*
X189375627Y-107323588D02*
X189375627Y-107023868D01*
X189546896Y-107052412D02*
X189561168Y-107038140D01*
X189589713Y-107023868D01*
X189661075Y-107023868D01*
X189689619Y-107038140D01*
X189703892Y-107052412D01*
X189718164Y-107080957D01*
X189718164Y-107109502D01*
X189703892Y-107152319D01*
X189532623Y-107323588D01*
X189718164Y-107323588D01*
X189975067Y-107123774D02*
X189975067Y-107323588D01*
X189903705Y-107009595D02*
X189832344Y-107223681D01*
X190017884Y-107223681D01*
X190274788Y-107023868D02*
X190132064Y-107023868D01*
X190117792Y-107166591D01*
X190132064Y-107152319D01*
X190160609Y-107138047D01*
X190231971Y-107138047D01*
X190260515Y-107152319D01*
X190274788Y-107166591D01*
X190289060Y-107195136D01*
X190289060Y-107266498D01*
X190274788Y-107295043D01*
X190260515Y-107309315D01*
X190231971Y-107323588D01*
X190160609Y-107323588D01*
X190132064Y-107309315D01*
X190117792Y-107295043D01*
D17*
D16*
X106959642Y-108357368D02*
X106959642Y-108599998D01*
X106973914Y-108628543D01*
X106988187Y-108642815D01*
X107016731Y-108657088D01*
X107073821Y-108657088D01*
X107102366Y-108642815D01*
X107116638Y-108628543D01*
X107130910Y-108599998D01*
X107130910Y-108357368D01*
X107402085Y-108457274D02*
X107402085Y-108657088D01*
X107330723Y-108343095D02*
X107259362Y-108557181D01*
X107444902Y-108557181D01*
D17*
D16*
X105860668Y-107087368D02*
X106060481Y-107087368D01*
X105932030Y-107387088D01*
X106303112Y-107187274D02*
X106303112Y-107387088D01*
X106231750Y-107073095D02*
X106160389Y-107287181D01*
X106345929Y-107287181D01*
X106602833Y-107387088D02*
X106460109Y-107387088D01*
X106460109Y-107087368D01*
X106659922Y-107087368D02*
X106759828Y-107387088D01*
X106859735Y-107087368D01*
X107130910Y-107358543D02*
X107116638Y-107372815D01*
X107073821Y-107387088D01*
X107045276Y-107387088D01*
X107002459Y-107372815D01*
X106973914Y-107344270D01*
X106959642Y-107315726D01*
X106945370Y-107258636D01*
X106945370Y-107215819D01*
X106959642Y-107158730D01*
X106973914Y-107130185D01*
X107002459Y-107101640D01*
X107045276Y-107087368D01*
X107073821Y-107087368D01*
X107116638Y-107101640D01*
X107130910Y-107115912D01*
X107302179Y-107215819D02*
X107273634Y-107201547D01*
X107259362Y-107187274D01*
X107245090Y-107158730D01*
X107245090Y-107144457D01*
X107259362Y-107115912D01*
X107273634Y-107101640D01*
X107302179Y-107087368D01*
X107359269Y-107087368D01*
X107387813Y-107101640D01*
X107402086Y-107115912D01*
X107416358Y-107144457D01*
X107416358Y-107158730D01*
X107402086Y-107187274D01*
X107387813Y-107201547D01*
X107359269Y-107215819D01*
X107302179Y-107215819D01*
X107273634Y-107230091D01*
X107259362Y-107244364D01*
X107245090Y-107272909D01*
X107245090Y-107329998D01*
X107259362Y-107358543D01*
X107273634Y-107372815D01*
X107302179Y-107387088D01*
X107359269Y-107387088D01*
X107387813Y-107372815D01*
X107402086Y-107358543D01*
X107416358Y-107329998D01*
X107416358Y-107272909D01*
X107402086Y-107244364D01*
X107387813Y-107230091D01*
X107359269Y-107215819D01*
X107501993Y-107087368D02*
X107673261Y-107087368D01*
X107587627Y-107387088D02*
X107587627Y-107087368D01*
X107758896Y-107115912D02*
X107773168Y-107101640D01*
X107801713Y-107087368D01*
X107873075Y-107087368D01*
X107901619Y-107101640D01*
X107915892Y-107115912D01*
X107930164Y-107144457D01*
X107930164Y-107173002D01*
X107915892Y-107215819D01*
X107744623Y-107387088D01*
X107930164Y-107387088D01*
X108187067Y-107187274D02*
X108187067Y-107387088D01*
X108115705Y-107073095D02*
X108044344Y-107287181D01*
X108229884Y-107287181D01*
X108486788Y-107087368D02*
X108344064Y-107087368D01*
X108329792Y-107230091D01*
X108344064Y-107215819D01*
X108372609Y-107201547D01*
X108443971Y-107201547D01*
X108472515Y-107215819D01*
X108486788Y-107230091D01*
X108501060Y-107258636D01*
X108501060Y-107329998D01*
X108486788Y-107358543D01*
X108472515Y-107372815D01*
X108443971Y-107387088D01*
X108372609Y-107387088D01*
X108344064Y-107372815D01*
X108329792Y-107358543D01*
D17*
D16*
X156553142Y-108255768D02*
X156553142Y-108498398D01*
X156567414Y-108526943D01*
X156581687Y-108541215D01*
X156610231Y-108555488D01*
X156667321Y-108555488D01*
X156695866Y-108541215D01*
X156710138Y-108526943D01*
X156724410Y-108498398D01*
X156724410Y-108255768D01*
X156838589Y-108255768D02*
X157024130Y-108255768D01*
X156924223Y-108369947D01*
X156967041Y-108369947D01*
X156995585Y-108384219D01*
X157009858Y-108398491D01*
X157024130Y-108427036D01*
X157024130Y-108498398D01*
X157009858Y-108526943D01*
X156995585Y-108541215D01*
X156967041Y-108555488D01*
X156881406Y-108555488D01*
X156852862Y-108541215D01*
X156838589Y-108526943D01*
D17*
D16*
X155454168Y-106985768D02*
X155653981Y-106985768D01*
X155525530Y-107285488D01*
X155896612Y-107085674D02*
X155896612Y-107285488D01*
X155825250Y-106971495D02*
X155753889Y-107185581D01*
X155939429Y-107185581D01*
X156196333Y-107285488D02*
X156053609Y-107285488D01*
X156053609Y-106985768D01*
X156253422Y-106985768D02*
X156353328Y-107285488D01*
X156453235Y-106985768D01*
X156724410Y-107256943D02*
X156710138Y-107271215D01*
X156667321Y-107285488D01*
X156638776Y-107285488D01*
X156595959Y-107271215D01*
X156567414Y-107242670D01*
X156553142Y-107214126D01*
X156538870Y-107157036D01*
X156538870Y-107114219D01*
X156553142Y-107057130D01*
X156567414Y-107028585D01*
X156595959Y-107000040D01*
X156638776Y-106985768D01*
X156667321Y-106985768D01*
X156710138Y-107000040D01*
X156724410Y-107014312D01*
X156895679Y-107114219D02*
X156867134Y-107099947D01*
X156852862Y-107085674D01*
X156838590Y-107057130D01*
X156838590Y-107042857D01*
X156852862Y-107014312D01*
X156867134Y-107000040D01*
X156895679Y-106985768D01*
X156952769Y-106985768D01*
X156981313Y-107000040D01*
X156995586Y-107014312D01*
X157009858Y-107042857D01*
X157009858Y-107057130D01*
X156995586Y-107085674D01*
X156981313Y-107099947D01*
X156952769Y-107114219D01*
X156895679Y-107114219D01*
X156867134Y-107128491D01*
X156852862Y-107142764D01*
X156838590Y-107171309D01*
X156838590Y-107228398D01*
X156852862Y-107256943D01*
X156867134Y-107271215D01*
X156895679Y-107285488D01*
X156952769Y-107285488D01*
X156981313Y-107271215D01*
X156995586Y-107256943D01*
X157009858Y-107228398D01*
X157009858Y-107171309D01*
X156995586Y-107142764D01*
X156981313Y-107128491D01*
X156952769Y-107114219D01*
X157095493Y-106985768D02*
X157266761Y-106985768D01*
X157181127Y-107285488D02*
X157181127Y-106985768D01*
X157352396Y-107014312D02*
X157366668Y-107000040D01*
X157395213Y-106985768D01*
X157466575Y-106985768D01*
X157495119Y-107000040D01*
X157509392Y-107014312D01*
X157523664Y-107042857D01*
X157523664Y-107071402D01*
X157509392Y-107114219D01*
X157338123Y-107285488D01*
X157523664Y-107285488D01*
X157780567Y-107085674D02*
X157780567Y-107285488D01*
X157709205Y-106971495D02*
X157637844Y-107185581D01*
X157823384Y-107185581D01*
X158080288Y-106985768D02*
X157937564Y-106985768D01*
X157923292Y-107128491D01*
X157937564Y-107114219D01*
X157966109Y-107099947D01*
X158037471Y-107099947D01*
X158066015Y-107114219D01*
X158080288Y-107128491D01*
X158094560Y-107157036D01*
X158094560Y-107228398D01*
X158080288Y-107256943D01*
X158066015Y-107271215D01*
X158037471Y-107285488D01*
X157966109Y-107285488D01*
X157937564Y-107271215D01*
X157923292Y-107256943D01*
D17*
D16*
X146723342Y-108281168D02*
X146723342Y-108523798D01*
X146737614Y-108552343D01*
X146751887Y-108566615D01*
X146780431Y-108580888D01*
X146837521Y-108580888D01*
X146866066Y-108566615D01*
X146880338Y-108552343D01*
X146894610Y-108523798D01*
X146894610Y-108281168D01*
X147023062Y-108309712D02*
X147037334Y-108295440D01*
X147065879Y-108281168D01*
X147137241Y-108281168D01*
X147165785Y-108295440D01*
X147180058Y-108309712D01*
X147194330Y-108338257D01*
X147194330Y-108366802D01*
X147180058Y-108409619D01*
X147008789Y-108580888D01*
X147194330Y-108580888D01*
D17*
D16*
X145624368Y-107011168D02*
X145824181Y-107011168D01*
X145695730Y-107310888D01*
X146066812Y-107111074D02*
X146066812Y-107310888D01*
X145995450Y-106996895D02*
X145924089Y-107210981D01*
X146109629Y-107210981D01*
X146366533Y-107310888D02*
X146223809Y-107310888D01*
X146223809Y-107011168D01*
X146423622Y-107011168D02*
X146523528Y-107310888D01*
X146623435Y-107011168D01*
X146894610Y-107282343D02*
X146880338Y-107296615D01*
X146837521Y-107310888D01*
X146808976Y-107310888D01*
X146766159Y-107296615D01*
X146737614Y-107268070D01*
X146723342Y-107239526D01*
X146709070Y-107182436D01*
X146709070Y-107139619D01*
X146723342Y-107082530D01*
X146737614Y-107053985D01*
X146766159Y-107025440D01*
X146808976Y-107011168D01*
X146837521Y-107011168D01*
X146880338Y-107025440D01*
X146894610Y-107039712D01*
X147065879Y-107139619D02*
X147037334Y-107125347D01*
X147023062Y-107111074D01*
X147008790Y-107082530D01*
X147008790Y-107068257D01*
X147023062Y-107039712D01*
X147037334Y-107025440D01*
X147065879Y-107011168D01*
X147122969Y-107011168D01*
X147151513Y-107025440D01*
X147165786Y-107039712D01*
X147180058Y-107068257D01*
X147180058Y-107082530D01*
X147165786Y-107111074D01*
X147151513Y-107125347D01*
X147122969Y-107139619D01*
X147065879Y-107139619D01*
X147037334Y-107153891D01*
X147023062Y-107168164D01*
X147008790Y-107196709D01*
X147008790Y-107253798D01*
X147023062Y-107282343D01*
X147037334Y-107296615D01*
X147065879Y-107310888D01*
X147122969Y-107310888D01*
X147151513Y-107296615D01*
X147165786Y-107282343D01*
X147180058Y-107253798D01*
X147180058Y-107196709D01*
X147165786Y-107168164D01*
X147151513Y-107153891D01*
X147122969Y-107139619D01*
X147265693Y-107011168D02*
X147436961Y-107011168D01*
X147351327Y-107310888D02*
X147351327Y-107011168D01*
X147522596Y-107039712D02*
X147536868Y-107025440D01*
X147565413Y-107011168D01*
X147636775Y-107011168D01*
X147665319Y-107025440D01*
X147679592Y-107039712D01*
X147693864Y-107068257D01*
X147693864Y-107096802D01*
X147679592Y-107139619D01*
X147508323Y-107310888D01*
X147693864Y-107310888D01*
X147950767Y-107111074D02*
X147950767Y-107310888D01*
X147879405Y-106996895D02*
X147808044Y-107210981D01*
X147993584Y-107210981D01*
X148250488Y-107011168D02*
X148107764Y-107011168D01*
X148093492Y-107153891D01*
X148107764Y-107139619D01*
X148136309Y-107125347D01*
X148207671Y-107125347D01*
X148236215Y-107139619D01*
X148250488Y-107153891D01*
X148264760Y-107182436D01*
X148264760Y-107253798D01*
X148250488Y-107282343D01*
X148236215Y-107296615D01*
X148207671Y-107310888D01*
X148136309Y-107310888D01*
X148107764Y-107296615D01*
X148093492Y-107282343D01*
D17*
D16*
X166395642Y-108293868D02*
X166395642Y-108536498D01*
X166409914Y-108565043D01*
X166424187Y-108579315D01*
X166452731Y-108593588D01*
X166509821Y-108593588D01*
X166538366Y-108579315D01*
X166552638Y-108565043D01*
X166566910Y-108536498D01*
X166566910Y-108293868D01*
X166866630Y-108593588D02*
X166695362Y-108593588D01*
X166780996Y-108593588D02*
X166780996Y-108293868D01*
X166752451Y-108336685D01*
X166723906Y-108365230D01*
X166695362Y-108379502D01*
D17*
D16*
X165296668Y-107023868D02*
X165496481Y-107023868D01*
X165368030Y-107323588D01*
X165739112Y-107123774D02*
X165739112Y-107323588D01*
X165667750Y-107009595D02*
X165596389Y-107223681D01*
X165781929Y-107223681D01*
X166038833Y-107323588D02*
X165896109Y-107323588D01*
X165896109Y-107023868D01*
X166095922Y-107023868D02*
X166195828Y-107323588D01*
X166295735Y-107023868D01*
X166566910Y-107295043D02*
X166552638Y-107309315D01*
X166509821Y-107323588D01*
X166481276Y-107323588D01*
X166438459Y-107309315D01*
X166409914Y-107280770D01*
X166395642Y-107252226D01*
X166381370Y-107195136D01*
X166381370Y-107152319D01*
X166395642Y-107095230D01*
X166409914Y-107066685D01*
X166438459Y-107038140D01*
X166481276Y-107023868D01*
X166509821Y-107023868D01*
X166552638Y-107038140D01*
X166566910Y-107052412D01*
X166738179Y-107152319D02*
X166709634Y-107138047D01*
X166695362Y-107123774D01*
X166681090Y-107095230D01*
X166681090Y-107080957D01*
X166695362Y-107052412D01*
X166709634Y-107038140D01*
X166738179Y-107023868D01*
X166795269Y-107023868D01*
X166823813Y-107038140D01*
X166838086Y-107052412D01*
X166852358Y-107080957D01*
X166852358Y-107095230D01*
X166838086Y-107123774D01*
X166823813Y-107138047D01*
X166795269Y-107152319D01*
X166738179Y-107152319D01*
X166709634Y-107166591D01*
X166695362Y-107180864D01*
X166681090Y-107209409D01*
X166681090Y-107266498D01*
X166695362Y-107295043D01*
X166709634Y-107309315D01*
X166738179Y-107323588D01*
X166795269Y-107323588D01*
X166823813Y-107309315D01*
X166838086Y-107295043D01*
X166852358Y-107266498D01*
X166852358Y-107209409D01*
X166838086Y-107180864D01*
X166823813Y-107166591D01*
X166795269Y-107152319D01*
X166937993Y-107023868D02*
X167109261Y-107023868D01*
X167023627Y-107323588D02*
X167023627Y-107023868D01*
X167194896Y-107052412D02*
X167209168Y-107038140D01*
X167237713Y-107023868D01*
X167309075Y-107023868D01*
X167337619Y-107038140D01*
X167351892Y-107052412D01*
X167366164Y-107080957D01*
X167366164Y-107109502D01*
X167351892Y-107152319D01*
X167180623Y-107323588D01*
X167366164Y-107323588D01*
X167623067Y-107123774D02*
X167623067Y-107323588D01*
X167551705Y-107009595D02*
X167480344Y-107223681D01*
X167665884Y-107223681D01*
X167922788Y-107023868D02*
X167780064Y-107023868D01*
X167765792Y-107166591D01*
X167780064Y-107152319D01*
X167808609Y-107138047D01*
X167879971Y-107138047D01*
X167908515Y-107152319D01*
X167922788Y-107166591D01*
X167937060Y-107195136D01*
X167937060Y-107266498D01*
X167922788Y-107295043D01*
X167908515Y-107309315D01*
X167879971Y-107323588D01*
X167808609Y-107323588D01*
X167780064Y-107309315D01*
X167765792Y-107295043D01*
D17*
D16*
X125882642Y-108357368D02*
X125882642Y-108599998D01*
X125896914Y-108628543D01*
X125911187Y-108642815D01*
X125939731Y-108657088D01*
X125996821Y-108657088D01*
X126025366Y-108642815D01*
X126039638Y-108628543D01*
X126053910Y-108599998D01*
X126053910Y-108357368D01*
X126325085Y-108357368D02*
X126267996Y-108357368D01*
X126239451Y-108371640D01*
X126225179Y-108385912D01*
X126196634Y-108428730D01*
X126182362Y-108485819D01*
X126182362Y-108599998D01*
X126196634Y-108628543D01*
X126210906Y-108642815D01*
X126239451Y-108657088D01*
X126296541Y-108657088D01*
X126325085Y-108642815D01*
X126339358Y-108628543D01*
X126353630Y-108599998D01*
X126353630Y-108528636D01*
X126339358Y-108500091D01*
X126325085Y-108485819D01*
X126296541Y-108471547D01*
X126239451Y-108471547D01*
X126210906Y-108485819D01*
X126196634Y-108500091D01*
X126182362Y-108528636D01*
D17*
D16*
X124783668Y-107087368D02*
X124983481Y-107087368D01*
X124855030Y-107387088D01*
X125226112Y-107187274D02*
X125226112Y-107387088D01*
X125154750Y-107073095D02*
X125083389Y-107287181D01*
X125268929Y-107287181D01*
X125525833Y-107387088D02*
X125383109Y-107387088D01*
X125383109Y-107087368D01*
X125582922Y-107087368D02*
X125682828Y-107387088D01*
X125782735Y-107087368D01*
X126053910Y-107358543D02*
X126039638Y-107372815D01*
X125996821Y-107387088D01*
X125968276Y-107387088D01*
X125925459Y-107372815D01*
X125896914Y-107344270D01*
X125882642Y-107315726D01*
X125868370Y-107258636D01*
X125868370Y-107215819D01*
X125882642Y-107158730D01*
X125896914Y-107130185D01*
X125925459Y-107101640D01*
X125968276Y-107087368D01*
X125996821Y-107087368D01*
X126039638Y-107101640D01*
X126053910Y-107115912D01*
X126225179Y-107215819D02*
X126196634Y-107201547D01*
X126182362Y-107187274D01*
X126168090Y-107158730D01*
X126168090Y-107144457D01*
X126182362Y-107115912D01*
X126196634Y-107101640D01*
X126225179Y-107087368D01*
X126282269Y-107087368D01*
X126310813Y-107101640D01*
X126325086Y-107115912D01*
X126339358Y-107144457D01*
X126339358Y-107158730D01*
X126325086Y-107187274D01*
X126310813Y-107201547D01*
X126282269Y-107215819D01*
X126225179Y-107215819D01*
X126196634Y-107230091D01*
X126182362Y-107244364D01*
X126168090Y-107272909D01*
X126168090Y-107329998D01*
X126182362Y-107358543D01*
X126196634Y-107372815D01*
X126225179Y-107387088D01*
X126282269Y-107387088D01*
X126310813Y-107372815D01*
X126325086Y-107358543D01*
X126339358Y-107329998D01*
X126339358Y-107272909D01*
X126325086Y-107244364D01*
X126310813Y-107230091D01*
X126282269Y-107215819D01*
X126424993Y-107087368D02*
X126596261Y-107087368D01*
X126510627Y-107387088D02*
X126510627Y-107087368D01*
X126681896Y-107115912D02*
X126696168Y-107101640D01*
X126724713Y-107087368D01*
X126796075Y-107087368D01*
X126824619Y-107101640D01*
X126838892Y-107115912D01*
X126853164Y-107144457D01*
X126853164Y-107173002D01*
X126838892Y-107215819D01*
X126667623Y-107387088D01*
X126853164Y-107387088D01*
X127110067Y-107187274D02*
X127110067Y-107387088D01*
X127038705Y-107073095D02*
X126967344Y-107287181D01*
X127152884Y-107287181D01*
X127409788Y-107087368D02*
X127267064Y-107087368D01*
X127252792Y-107230091D01*
X127267064Y-107215819D01*
X127295609Y-107201547D01*
X127366971Y-107201547D01*
X127395515Y-107215819D01*
X127409788Y-107230091D01*
X127424060Y-107258636D01*
X127424060Y-107329998D01*
X127409788Y-107358543D01*
X127395515Y-107372815D01*
X127366971Y-107387088D01*
X127295609Y-107387088D01*
X127267064Y-107372815D01*
X127252792Y-107358543D01*
D17*
M02*
